<?xml version="1.0" encoding="UTF-8"?>
<!DOCTYPE svg PUBLIC "-//W3C//DTD SVG 1.1//EN" "http://www.w3.org/Graphics/SVG/1.1/DTD/svg11.dtd">
<svg xmlns="http://www.w3.org/2000/svg" version="1.1" width="512px" height="512px" style="shape-rendering:geometricPrecision; text-rendering:geometricPrecision; image-rendering:optimizeQuality; fill-rule:evenodd; clip-rule:evenodd" xmlns:xlink="http://www.w3.org/1999/xlink">
<g><path style="opacity:0.995" fill="#4caf50" d="M 237.5,31.5 C 314.739,27.5265 372.906,58.5265 412,124.5C 437.578,173.263 438.911,222.596 416,272.5C 406.604,292.965 395.938,312.632 384,331.5C 352.408,379.766 317.742,425.766 280,469.5C 268.785,479.805 255.952,482.305 241.5,477C 237.722,474.888 234.222,472.388 231,469.5C 189.522,422.197 152.189,371.864 119,318.5C 105.515,295.529 94.1815,271.529 85,246.5C 69.9749,177.91 88.4749,120.076 140.5,73C 168.835,49.8329 201.168,35.9996 237.5,31.5 Z M 248.5,138.5 C 286.981,138.166 311.148,156.499 321,193.5C 324.636,228.078 310.803,252.578 279.5,267C 245.233,277.357 218.067,267.857 198,238.5C 182.779,207.383 187.279,179.55 211.5,155C 222.456,146.184 234.789,140.684 248.5,138.5 Z"/></g>
</svg>
